<svg version="1" xmlns="http://www.w3.org/2000/svg" width="1034.667" height="1034.667" viewBox="0 0 776.000000 776.000000"><path d="M19.3 2.6C13.7 4.6 7 10.7 4 16.6l-2.5 4.9-.3 365C1 799.3.1 757.2 9.4 766.5c9.4 9.4-32.8 8.5 378.7 8.5 363.3 0 363.8 0 369.3-2 7-2.7 13.6-9.6 16.2-17.1 1.9-5.3 1.9-14.6 1.9-367.9 0-353.3 0-362.6-1.9-367.9-2.6-7.5-9.2-14.4-16.2-17.1-5.5-2-5.9-2-369.7-1.9C68.9 1.1 23 1.3 19.3 2.6zm408.2 243.6c24.8 7.8 47.6 28.2 55.2 49.4 5.4 14.8 5.3 13 5.3 127.7 0 81.3-.3 106.6-1.2 107.5-.9.9-9.9 1.2-34.4 1.2-33.3 0-33.3 0-34.8-2.2-1.4-2-1.6-12.7-1.6-95.4 0-89.9-.1-93.3-2-98.8-5.8-16.8-15.8-26.1-31.8-29.5-7.8-1.6-145.4-1.5-147 .1-.9.9-1.2 27.2-1.2 112.3s-.3 111.4-1.2 112.3c-.9.9-9.8 1.2-33.9 1.2-18 0-33.4-.3-34.3-.6-1.5-.6-1.6-14.1-1.6-143.4 0-113.3.3-142.9 1.3-143.3.6-.3 59-.5 129.7-.3 113.8.2 129.1.4 133.5 1.8zm185.5-.3c.7 1.3 1 47.4 1 142.1 0 94.7-.3 140.8-1 142.1-1 1.8-2.5 1.9-34.8 1.9-25 0-34.1-.3-35-1.2-1.7-1.7-1.7-283.9 0-285.6.9-.9 10-1.2 35-1.2 32.3 0 33.8.1 34.8 1.9zM361 356c2 2 2 3.3 2 87.4 0 76.4-.2 85.6-1.6 87-1.3 1.4-6 1.6-36.3 1.6-25.6 0-35-.3-35.9-1.2-.9-.9-1.2-21.7-1.2-87.4v-86.3l2.2-1.5c1.9-1.4 7-1.6 35.5-1.6 32 0 33.4.1 35.3 2z"/></svg>